<svg width="70" height="71" viewBox="0 0 70 71" fill="none" xmlns="http://www.w3.org/2000/svg">
<g clip-path="url(#clip0_32_628)">
<path d="M44.0598 38.3718L44.5174 38.4116C47.6913 35.9753 47.8146 30.8033 44.7818 26.8165C41.8199 22.9465 36.9471 21.5796 33.7284 23.7417C43.0688 27.619 35.7702 36.3784 44.0598 38.3718Z" fill="#FFFDF5"/>
<path d="M32.4819 25.6086L32.0046 25.5326C28.8364 27.968 28.7149 33.1409 31.7422 37.1277C34.704 40.9986 39.5787 42.3646 42.7965 40.2016C33.8381 37.5605 40.4782 28.6056 32.4819 25.6086Z" fill="#FFFDF5"/>
<path d="M58.748 41.1854L58.6331 40.7433C55.2613 38.5869 50.3053 40.1938 47.5256 44.3585C44.8346 48.4194 45.1587 53.4329 48.2859 55.7238C48.8594 45.6939 59.6148 49.6046 58.748 41.1854Z" fill="#FFFDF5"/>
<path d="M50.4748 56.2678L50.5626 56.7395C53.9317 58.8932 58.8886 57.2835 61.6674 53.1234C64.3611 49.0635 64.0351 44.0481 60.9071 41.7581C61.3815 51.0179 50.6598 47.7892 50.4748 56.2678Z" fill="#FFFDF5"/>
<path d="M18.1275 24.7981L18.1658 24.344C15.7027 21.2015 10.4899 21.0912 6.47911 24.1086C2.58511 27.0565 1.21862 31.8949 3.40613 35.0819C7.29172 25.8054 16.137 33.0274 18.1275 24.7981Z" fill="#FFFDF5"/>
<path d="M5.28998 36.3152L5.21526 36.7887C7.67644 39.9266 12.8912 40.035 16.9019 37.0222C20.7968 34.0753 22.1615 29.235 19.974 26.0471C17.3334 34.9418 8.2929 28.375 5.28998 36.3152Z" fill="#FFFDF5"/>
<path d="M32.5877 54.3455L33.009 54.1629C34.6277 50.52 32.2496 45.916 27.6672 43.8476C23.2035 41.8487 18.2634 42.9533 16.4747 46.3766C26.5473 45.3637 24.3439 56.5158 32.5877 54.3455Z" fill="#FFFDF5"/>
<path d="M16.2758 48.6069L15.821 48.7663C14.2051 52.4064 16.5869 57.0104 21.1636 59.0806C25.6283 61.0814 30.5694 59.9759 32.3571 56.5507C23.2148 58.4699 24.7447 47.4577 16.2758 48.6069Z" fill="#FFFDF5"/>
<path d="M50.9382 24.7466L50.7663 25.171C52.1917 28.8918 57.143 30.5164 61.8692 28.7982C66.4637 27.1134 69.2014 22.8876 68.0525 19.203C61.5946 26.9383 55.2759 17.4598 50.9382 24.7466Z" fill="#FFFDF5"/>
<path d="M66.6179 17.4763L66.829 17.0444C65.4046 13.3273 60.4514 11.7056 55.7271 13.4191C51.1307 15.1011 48.394 19.3306 49.5428 23.0153C54.6978 15.2818 61.3967 24.1922 66.6179 17.4763Z" fill="#FFFDF5"/>
</g>
<defs>
<clipPath id="clip0_32_628">
<rect width="70" height="69.4517" fill="white" transform="translate(0 0.966064)"/>
</clipPath>
</defs>
</svg>
