<svg width="70" height="71" viewBox="0 0 70 71" fill="none" xmlns="http://www.w3.org/2000/svg">
<path d="M22.5051 67.0109L20.5376 14.8364H52.6759L55.7005 66.3754L22.5051 67.0109ZM19.3445 23.7654L20.9336 65.9029L17.8111 62.491L19.3445 23.7654ZM13.9358 11.4533L15.528 7.26097L17.1912 11.5443L13.9358 11.4533ZM48.1081 6.00055L52.0025 13.1702H19.4614L16.6776 6.00055H48.1081ZM54.1503 13.8846C54.1366 13.6449 54.0036 13.4463 53.8186 13.3173L49.237 4.88195C49.104 4.63624 48.8457 4.48381 48.5644 4.48381H15.5639C15.3155 4.48381 15.0831 4.60439 14.9402 4.80611C14.8447 4.88726 14.7606 4.98281 14.7132 5.10871L12.1274 11.9143C12.0402 12.1434 12.07 12.4005 12.2076 12.6037C12.3452 12.8077 12.5738 12.9328 12.8206 12.9397L17.7859 13.0777L18.1964 14.1341L16.2717 62.742C16.2633 62.9399 16.3344 63.1341 16.4697 63.2812L21.0589 68.2963C21.2041 68.4548 21.4098 68.5443 21.6253 68.5443H21.6398L56.5244 67.8769C56.7316 67.8724 56.9288 67.7852 57.071 67.6335C57.2116 67.4818 57.2842 67.2801 57.272 67.0738L54.1503 13.8846Z" fill="white"/>
<path d="M42.6375 34.0746C42.0107 41.025 34.6323 38.0689 35.042 43.9334L35.1116 44.2421C37.4031 45.8149 40.881 44.8101 42.9057 41.9821C44.8663 39.2231 44.7555 35.7354 42.6375 34.0746Z" fill="white"/>
<path d="M41.1304 33.6481L41.0807 33.3189C38.7899 31.7476 35.3121 32.7532 33.2873 35.5789C31.3252 38.3378 31.4368 41.8263 33.5563 43.4872C33.4386 37.0471 40.8078 39.5292 41.1304 33.6481Z" fill="white"/>
</svg>
