<svg width="30" height="30" viewBox="0 0 30 30" fill="none" xmlns="http://www.w3.org/2000/svg">
<path d="M24.875 12.5H24.1788C24.2475 11.9775 24.3075 11.465 24.3563 10.9725C24.445 10.0787 24.1538 9.1875 23.555 8.52625C22.9663 7.87625 22.1275 7.50375 21.2525 7.50375L3.12 7.5C2.245 7.5 1.40625 7.8725 0.8175 8.5225C0.21875 9.18375 -0.07375 10.0762 0.0175 10.9688C0.43 15.12 1.58375 20.6338 2.90875 22.6737C4.365 24.9137 6.88375 26.25 9.645 26.25H14.7288C17.49 26.25 20.0088 24.9125 21.465 22.6737C21.705 22.3037 21.94 21.82 22.1663 21.25H24.8763C27.655 21.25 30.0013 19.0013 30.0013 16.3388C30.0013 13.935 28.085 12.5 24.875 12.5ZM14.7288 25H9.645C7.30875 25 5.1825 23.8762 3.95625 21.9925C2.92375 20.4012 1.71375 15.4012 1.26 10.845C1.20625 10.3025 1.3825 9.76125 1.745 9.36125C2.10125 8.9675 2.59125 8.75 3.12125 8.75L21.2538 8.75375C21.7838 8.75375 22.2713 8.97125 22.6288 9.365C22.9913 9.765 23.1688 10.305 23.115 10.8488C22.6613 15.405 21.4513 20.4037 20.4188 21.9925C19.1938 23.8762 17.0663 25 14.73 25H14.7288ZM24.875 20H22.6063C23.1738 18.2062 23.66 15.9388 24 13.75H24.8763C26.3225 13.75 28.7513 14.0863 28.7513 16.3388C28.7513 18.2887 26.94 20 24.875 20ZM11.25 4.375V0.625C11.25 0.28 11.53 0 11.875 0C12.22 0 12.5 0.28 12.5 0.625V4.375C12.5 4.72 12.22 5 11.875 5C11.53 5 11.25 4.72 11.25 4.375ZM16.25 4.375V0.625C16.25 0.28 16.53 0 16.875 0C17.22 0 17.5 0.28 17.5 0.625V4.375C17.5 4.72 17.22 5 16.875 5C16.53 5 16.25 4.72 16.25 4.375ZM6.25 4.375V0.625C6.25 0.28 6.53 0 6.875 0C7.22 0 7.5 0.28 7.5 0.625V4.375C7.5 4.72 7.22 5 6.875 5C6.53 5 6.25 4.72 6.25 4.375ZM24.375 29.375C24.375 29.72 24.095 30 23.75 30H0.625C0.28 30 0 29.72 0 29.375C0 29.03 0.28 28.75 0.625 28.75H23.75C24.095 28.75 24.375 29.03 24.375 29.375Z" fill="#D1CDC8"/>
</svg>
