<svg width="27" height="24" viewBox="0 0 27 24" fill="none" xmlns="http://www.w3.org/2000/svg">
<path d="M19.6875 0.156616C18.4207 0.176321 17.1815 0.529951 16.0951 1.1818C15.0087 1.83364 14.1135 2.76062 13.5 3.86912C12.8865 2.76062 11.9913 1.83364 10.9049 1.1818C9.81848 0.529951 8.57931 0.176321 7.3125 0.156616C5.29306 0.244356 3.39042 1.12778 2.02025 2.61388C0.650091 4.09998 -0.0762205 6.06796 -1.14657e-06 8.08787C-1.14657e-06 13.2032 5.38425 18.79 9.9 22.5779C10.9082 23.4251 12.183 23.8896 13.5 23.8896C14.817 23.8896 16.0918 23.4251 17.1 22.5779C21.6157 18.79 27 13.2032 27 8.08787C27.0762 6.06796 26.3499 4.09998 24.9797 2.61388C23.6096 1.12778 21.7069 0.244356 19.6875 0.156616Z" fill="#A6A19D" fill-opacity="0.3"/>
</svg>
