<svg width="30" height="30" viewBox="0 0 30 30" fill="none" xmlns="http://www.w3.org/2000/svg">
<path d="M1.25001 30C0.930007 30 0.610007 29.8775 0.366257 29.6338C-0.122493 29.145 -0.122493 28.355 0.366257 27.8663L27.8663 0.366257C28.355 -0.122493 29.145 -0.122493 29.6338 0.366257C30.1225 0.855007 30.1225 1.64501 29.6338 2.13376L2.13376 29.6338C1.89001 29.8775 1.57001 30 1.25001 30ZM11.25 6.25001C11.25 3.49251 9.00751 1.25001 6.25001 1.25001C3.49251 1.25001 1.25001 3.49251 1.25001 6.25001C1.25001 9.00751 3.49251 11.25 6.25001 11.25C9.00751 11.25 11.25 9.00751 11.25 6.25001ZM8.75001 6.25001C8.75001 7.62876 7.62876 8.75001 6.25001 8.75001C4.87126 8.75001 3.75001 7.62876 3.75001 6.25001C3.75001 4.87126 4.87126 3.75001 6.25001 3.75001C7.62876 3.75001 8.75001 4.87126 8.75001 6.25001ZM28.75 23.75C28.75 20.9925 26.5075 18.75 23.75 18.75C20.9925 18.75 18.75 20.9925 18.75 23.75C18.75 26.5075 20.9925 28.75 23.75 28.75C26.5075 28.75 28.75 26.5075 28.75 23.75ZM26.25 23.75C26.25 25.1288 25.1288 26.25 23.75 26.25C22.3713 26.25 21.25 25.1288 21.25 23.75C21.25 22.3713 22.3713 21.25 23.75 21.25C25.1288 21.25 26.25 22.3713 26.25 23.75Z" fill="#D1CDC8"/>
</svg>
