<svg width="40" height="40" viewBox="0 0 40 40" fill="none" xmlns="http://www.w3.org/2000/svg">
<circle cx="20" cy="20" r="20" fill="#A6A19D"/>
<g clip-path="url(#clip0_11_25)">
<path d="M29.7558 28.5775L24.7817 23.6033C26.1372 21.9455 26.8037 19.8301 26.6432 17.6946C26.4828 15.5592 25.5077 13.5671 23.9197 12.1304C22.3316 10.6938 20.2522 9.92241 18.1114 9.97594C15.9706 10.0295 13.9323 10.9038 12.418 12.418C10.9038 13.9323 10.0295 15.9706 9.97594 18.1114C9.92241 20.2522 10.6938 22.3316 12.1304 23.9197C13.5671 25.5077 15.5592 26.4828 17.6946 26.6432C19.8301 26.8037 21.9455 26.1372 23.6033 24.7817L28.5775 29.7558C28.7347 29.9076 28.9452 29.9916 29.1637 29.9897C29.3822 29.9878 29.5912 29.9002 29.7457 29.7457C29.9002 29.5912 29.9878 29.3822 29.9897 29.1637C29.9916 28.9452 29.9076 28.7347 29.7558 28.5775ZM18.3333 25C17.0148 25 15.7259 24.609 14.6295 23.8765C13.5332 23.1439 12.6787 22.1027 12.1741 20.8846C11.6696 19.6664 11.5375 18.3259 11.7948 17.0327C12.052 15.7395 12.6869 14.5516 13.6193 13.6193C14.5516 12.6869 15.7395 12.052 17.0327 11.7948C18.3259 11.5375 19.6664 11.6696 20.8846 12.1741C22.1027 12.6787 23.1439 13.5332 23.8765 14.6295C24.609 15.7259 25 17.0148 25 18.3333C24.998 20.1008 24.295 21.7954 23.0452 23.0452C21.7954 24.295 20.1008 24.998 18.3333 25Z" fill="#FFFDF5"/>
</g>
<defs>
<clipPath id="clip0_11_25">
<rect width="20" height="20" fill="white" transform="translate(10 10)"/>
</clipPath>
</defs>
</svg>
